<svg id="Layer_1" data-name="Layer 1" xmlns="http://www.w3.org/2000/svg" viewBox="0 0 546.7 546.7"><defs><style>.cls-1{fill:#ff9800;}</style></defs><title>todo-logo</title><path class="cls-1" d="M300,26.65C149,26.65,26.65,149,26.65,300h0C26.65,451,149,573.35,300,573.35S573.35,451,573.35,300h0C573.35,149,451,26.65,300,26.65ZM300,505C186.78,505,95,413.22,95,300S186.78,95,300,95s205,91.79,205,205S413.22,505,300,505Zm90.6-301.82,48.29,48.29L269.82,420.79,161,312.07l48.29-48.29,60.48,60.36Z" transform="translate(-26.65 -26.65)"/></svg>