<svg id="Layer_1" data-name="Layer 1" xmlns="http://www.w3.org/2000/svg" viewBox="0 0 148.49 185.61"><defs><style>.cls-1{fill:#aaa;}</style></defs><title>trash</title><path class="cls-1" d="M83.76,7.2a11.56,11.56,0,0,0-11.6,11.6v7H35A9.36,9.36,0,0,0,25.76,35v23.2A9.36,9.36,0,0,0,35,67.52h4.64v116A9.36,9.36,0,0,0,49,192.8H151a9.36,9.36,0,0,0,9.28-9.28v-116H165a9.36,9.36,0,0,0,9.28-9.28V35A9.36,9.36,0,0,0,165,25.76H127.84v-7a11.56,11.56,0,0,0-11.6-11.6Zm0,9.28h32.48a3,3,0,0,1,2.32,2.32v7H81.44v-7A3,3,0,0,1,83.76,16.48ZM35,35H165v23.2H35ZM49,67.52H151v116H49Zm23.2,18.56a4.64,4.64,0,0,0-4.64,4.64v69.6a4.64,4.64,0,1,0,9.28,0V90.72A4.64,4.64,0,0,0,72.16,86.08Zm27.84,0a4.64,4.64,0,0,0-4.64,4.64v69.6a4.64,4.64,0,1,0,9.28,0V90.72A4.64,4.64,0,0,0,100,86.08Zm27.84,0a4.64,4.64,0,0,0-4.64,4.64v69.6a4.64,4.64,0,1,0,9.28,0V90.72A4.64,4.64,0,0,0,127.84,86.08Z" transform="translate(-25.76 -7.2)"/></svg>